<svg xmlns="http://www.w3.org/2000/svg" xmlns:cc="http://creativecommons.org/ns#" xmlns:dc="http://purl.org/dc/elements/1.1/" xmlns:rdf="http://www.w3.org/1999/02/22-rdf-syntax-ns#" xmlns:serif="http://www.serif.com/" xmlns:svg="http://www.w3.org/2000/svg" height="512" style="fill-rule:evenodd;clip-rule:evenodd;stroke-linejoin:round;stroke-miterlimit:2;" version="1.1" width="512" xml:space="preserve"><rect id="backgroundrect" width="100%" height="100%" x="0" y="0" fill="none" stroke="none"/><defs id="defs2797"/><g class="currentLayer" style=""><title>Layer 1</title><g id="_33-Data" style="display:inline" class="" fill="#ffffff" fill-opacity="1"><g id="g2066" fill="#ffffff" fill-opacity="1"><path d="m473.030029296875,382.32717578124993 c-5.699,5.698 -13.584,8.967 -21.633,8.967 h-90.87 c-8.175,0 -15.861,-3.185 -21.643,-8.967 c-5.777,-5.776 -8.958,-13.459 -8.958,-21.633 c0,-8.174 3.184,-15.863 8.958,-21.643 c5.775,-5.777 13.461,-8.957 21.643,-8.957 h90.87 c8.175,0 15.858,3.18 21.627,8.951 c5.786,5.793 8.973,13.481 8.973,21.649 c0,8.049 -3.269,15.934 -8.967,21.633 M296.78702929687506,198.26417578124983 c0,-9.998 8.138,-18.13 18.139,-18.13 c9.998,0 18.13,8.132 18.13,18.13 c0,10.002 -8.132,18.14 -18.13,18.14 c-10.001,0 -18.139,-8.138 -18.139,-18.14 m95.99,260.549 h-273.56 V258.8641757812502 h35.2 c16.18,0 31.398,-6.3 42.856,-17.744 c7.82,-7.819 13.234,-17.403 15.881,-27.856 h56.038 c6.32,19.22 24.428,33.14 45.734,33.14 c26.54,0 48.13,-21.596 48.13,-48.14 c0,-26.54 -21.59,-48.13 -48.13,-48.13 c-21.305,0 -39.412,13.915 -45.733,33.13 h-56.04 c-2.649,-10.449 -8.064,-20.032 -15.886,-27.854 c-11.458,-11.443 -26.675,-17.746 -42.85,-17.746 h-35.2 v-50.12 h49.951 c2.36,7.426 6.471,14.235 12.142,19.906 c9.32,9.32 21.713,14.454 34.897,14.454 h79.58 c13.182,0 25.576,-5.133 34.905,-14.463 c5.662,-5.6720000000000015 9.767,-12.477 12.124,-19.897 h49.961 v212.55 h-32.25 c-16.195,0 -31.416,6.301 -42.862,17.75 c-11.439,11.451 -17.739,26.67 -17.739,42.85 c0,16.188 6.302,31.404 17.745,42.846000000000004 c11.448,11.449 26.669,17.754 42.856,17.754 h32.25 zM38.953029296874774,219.90717578124986 c-5.776,-5.775 -8.956,-13.462 -8.956,-21.643 c0,-8.175 3.181,-15.858 8.956,-21.634 c5.699,-5.699 13.583,-8.966 21.634,-8.966 h93.83 c8.168,0 15.857,3.186 21.643,8.966 c5.776,5.776 8.957,13.459 8.957,21.634 c0,8.181 -3.181,15.868 -8.95,21.636 c-5.787,5.781 -13.476,8.964 -21.65,8.964 h-93.83 c-8.175,0 -15.857,-3.181 -21.634,-8.957 M202.52402929687514,58.86017578125029 c3.6,-3.6 8.588000000000001,-5.666 13.683,-5.666 h79.58 c5.095,0 10.083,2.066 13.682,5.665 c3.6020000000000003,3.603 5.667,8.59 5.667,13.685 v0.010000000000000004 c0,5.164 -2.015,10.026 -5.666,13.683 c-3.601,3.6020000000000003 -8.588000000000001,5.667 -13.683,5.667 h-79.58 c-5.095,0 -10.082,-2.065 -13.683,-5.667 c-3.661,-3.661 -5.6770000000000005,-8.52 -5.6770000000000005,-13.693 c0,-5.1690000000000005 2.013,-10.026 5.6770000000000005,-13.684000000000001 M494.24402929687494,317.83817578125036 C482.80202929687493,306.39517578125015 467.58602929687504,300.09417578124976 451.3970292968752,300.09417578124976 h-28.62 v-227.55 c0,-8.284 -6.716,-15 -15,-15 h-64.962 c-2.358,-7.424 -6.466,-14.23 -12.132,-19.897 c-9.32,-9.32 -21.713,-14.453 -34.896,-14.453 h-79.58 c-13.184,0 -25.577,5.133 -34.889,14.446 c-5.674,5.666 -9.788,12.473 -12.148,19.904 h-64.953 c-8.284,0 -15,6.716 -15,15 v65.12 h-28.63 c-16.182,0 -31.399,6.305 -42.847,17.753 c-11.442,11.442 -17.743,26.659 -17.743,42.847 c0,16.195 6.302,31.415 17.743,42.856 c11.443,11.442 26.659,17.744 42.847,17.744 h28.63 v214.949 c0,8.285 6.716,15 15,15 h303.56 c8.284,0 15,-6.715 15,-15 v-52.519 h28.62 c16.181,0 31.398,-6.305 42.846000000000004,-17.754 c11.449,-11.448 17.754,-26.665 17.754,-42.846000000000004 c0,-16.175 -6.303,-31.392 -17.753,-42.856 " id="path2064" style="fill-rule:nonzero" fill="#ffffff" fill-opacity="1"/></g><g id="g2070" fill="#ffffff" fill-opacity="1"><path d="m202.14990234375,322.5400390625 h49.7 c8.285,0 15,-6.716 15,-15 c0,-8.284 -6.715,-15 -15,-15 H202.14990234375 c-8.284,0 -15,6.716 -15,15 c0,8.284 6.716,15 15,15 " id="path2068" style="fill-rule:nonzero" fill="#ffffff" fill-opacity="1"/></g><g id="g2074" fill="#ffffff" fill-opacity="1"><path d="m251.85009765625,398.72998046875 h-49.7 c-8.284,0 -15,6.716 -15,15 c0,8.284 6.716,15 15,15 H251.85009765625 C260.1350976562501,428.72998046875 266.85009765625,422.01398046874965 266.85009765625,413.72998046875 C266.85009765625,405.44598046875035 260.1350976562501,398.72998046875 251.85009765625,398.72998046875 " id="path2072" style="fill-rule:nonzero" fill="#ffffff" fill-opacity="1"/></g><g id="g2078" fill="#ffffff" fill-opacity="1"><path d="m251.85009765625,345.6298828125 h-95.85 c-8.284,0 -15,6.716 -15,15 c0,8.284 6.716,15 15,15 H251.85009765625 C260.1350976562501,375.6298828125 266.85009765625,368.91388281249965 266.85009765625,360.6298828125 C266.85009765625,352.34588281250035 260.1350976562501,345.6298828125 251.85009765625,345.6298828125 " id="path2076" style="fill-rule:nonzero" fill="#ffffff" fill-opacity="1"/></g></g></g></svg>